<mxfile host="app.diagrams.net" modified="2021-04-17T15:03:25.915Z" agent="5.0 (Windows NT 10.0; Win64; x64) AppleWebKit/537.36 (KHTML, like Gecko) Chrome/89.0.4389.128 Safari/537.36" etag="N1BDGLtb5yt_4zPsCgM4" version="14.6.0" type="github" pages="2">
  <diagram id="xYctWNXIILo5AqreTcQN" name="network_one">
    <mxGraphModel dx="1422" dy="775" grid="1" gridSize="10" guides="1" tooltips="1" connect="1" arrows="1" fold="1" page="1" pageScale="1" pageWidth="827" pageHeight="1169" math="0" shadow="0">
      <root>
        <mxCell id="0" />
        <mxCell id="1" parent="0" />
        <mxCell id="u09HpfcCriapkDaa9-cm-1" value="" style="ellipse;whiteSpace=wrap;html=1;aspect=fixed;" parent="1" vertex="1">
          <mxGeometry x="360" y="360" width="80" height="80" as="geometry" />
        </mxCell>
        <mxCell id="u09HpfcCriapkDaa9-cm-2" value="" style="ellipse;whiteSpace=wrap;html=1;aspect=fixed;" parent="1" vertex="1">
          <mxGeometry x="360" y="480" width="80" height="80" as="geometry" />
        </mxCell>
        <mxCell id="u09HpfcCriapkDaa9-cm-11" value="" style="ellipse;whiteSpace=wrap;html=1;aspect=fixed;" parent="1" vertex="1">
          <mxGeometry x="680" y="200" width="80" height="80" as="geometry" />
        </mxCell>
        <mxCell id="u09HpfcCriapkDaa9-cm-12" value="" style="ellipse;whiteSpace=wrap;html=1;aspect=fixed;" parent="1" vertex="1">
          <mxGeometry x="680" y="320" width="80" height="80" as="geometry" />
        </mxCell>
        <mxCell id="u09HpfcCriapkDaa9-cm-13" value="" style="ellipse;whiteSpace=wrap;html=1;aspect=fixed;" parent="1" vertex="1">
          <mxGeometry x="680" y="440" width="80" height="80" as="geometry" />
        </mxCell>
        <mxCell id="u09HpfcCriapkDaa9-cm-14" value="" style="ellipse;whiteSpace=wrap;html=1;aspect=fixed;" parent="1" vertex="1">
          <mxGeometry x="680" y="840" width="80" height="80" as="geometry" />
        </mxCell>
        <mxCell id="u09HpfcCriapkDaa9-cm-17" value="" style="endArrow=none;html=1;entryX=0;entryY=0.5;entryDx=0;entryDy=0;exitX=1;exitY=0.5;exitDx=0;exitDy=0;" parent="1" source="u09HpfcCriapkDaa9-cm-12" edge="1">
          <mxGeometry width="50" height="50" relative="1" as="geometry">
            <mxPoint x="760" y="440" as="sourcePoint" />
            <mxPoint x="1000" y="480" as="targetPoint" />
          </mxGeometry>
        </mxCell>
        <mxCell id="u09HpfcCriapkDaa9-cm-18" value="" style="endArrow=none;html=1;exitX=1;exitY=0.5;exitDx=0;exitDy=0;" parent="1" source="u09HpfcCriapkDaa9-cm-13" edge="1">
          <mxGeometry width="50" height="50" relative="1" as="geometry">
            <mxPoint x="760" y="560" as="sourcePoint" />
            <mxPoint x="1000" y="480" as="targetPoint" />
          </mxGeometry>
        </mxCell>
        <mxCell id="u09HpfcCriapkDaa9-cm-28" value="" style="ellipse;whiteSpace=wrap;html=1;aspect=fixed;" parent="1" vertex="1">
          <mxGeometry x="360" y="240" width="80" height="80" as="geometry" />
        </mxCell>
        <mxCell id="u09HpfcCriapkDaa9-cm-29" value="" style="endArrow=none;html=1;entryX=0;entryY=0.5;entryDx=0;entryDy=0;exitX=1;exitY=0.5;exitDx=0;exitDy=0;endFill=0;" parent="1" target="u09HpfcCriapkDaa9-cm-11" edge="1">
          <mxGeometry width="50" height="50" relative="1" as="geometry">
            <mxPoint x="440" y="280" as="sourcePoint" />
            <mxPoint x="680" y="320" as="targetPoint" />
          </mxGeometry>
        </mxCell>
        <mxCell id="u09HpfcCriapkDaa9-cm-30" value="" style="ellipse;whiteSpace=wrap;html=1;aspect=fixed;" parent="1" vertex="1">
          <mxGeometry x="360" y="760" width="80" height="80" as="geometry" />
        </mxCell>
        <mxCell id="u09HpfcCriapkDaa9-cm-145" style="edgeStyle=orthogonalEdgeStyle;rounded=0;orthogonalLoop=1;jettySize=auto;html=1;exitX=1;exitY=0.5;exitDx=0;exitDy=0;endArrow=classicThin;endFill=1;" parent="1" source="u09HpfcCriapkDaa9-cm-33" edge="1">
          <mxGeometry relative="1" as="geometry">
            <mxPoint x="1160" y="360" as="targetPoint" />
          </mxGeometry>
        </mxCell>
        <mxCell id="u09HpfcCriapkDaa9-cm-33" value="" style="ellipse;whiteSpace=wrap;html=1;aspect=fixed;" parent="1" vertex="1">
          <mxGeometry x="1000" y="320" width="80" height="80" as="geometry" />
        </mxCell>
        <mxCell id="u09HpfcCriapkDaa9-cm-146" style="edgeStyle=orthogonalEdgeStyle;rounded=0;orthogonalLoop=1;jettySize=auto;html=1;endArrow=classicThin;endFill=1;" parent="1" source="u09HpfcCriapkDaa9-cm-37" edge="1">
          <mxGeometry relative="1" as="geometry">
            <mxPoint x="1160" y="480" as="targetPoint" />
          </mxGeometry>
        </mxCell>
        <mxCell id="u09HpfcCriapkDaa9-cm-37" value="" style="ellipse;whiteSpace=wrap;html=1;aspect=fixed;" parent="1" vertex="1">
          <mxGeometry x="1000" y="440" width="80" height="80" as="geometry" />
        </mxCell>
        <mxCell id="u09HpfcCriapkDaa9-cm-40" value="" style="endArrow=none;html=1;entryX=0;entryY=0.5;entryDx=0;entryDy=0;exitX=1;exitY=0.5;exitDx=0;exitDy=0;" parent="1" source="u09HpfcCriapkDaa9-cm-11" edge="1">
          <mxGeometry width="50" height="50" relative="1" as="geometry">
            <mxPoint x="760" y="320" as="sourcePoint" />
            <mxPoint x="1000" y="360" as="targetPoint" />
          </mxGeometry>
        </mxCell>
        <mxCell id="u09HpfcCriapkDaa9-cm-49" value="" style="ellipse;whiteSpace=wrap;html=1;aspect=fixed;" parent="1" vertex="1">
          <mxGeometry x="680" y="560" width="80" height="80" as="geometry" />
        </mxCell>
        <mxCell id="u09HpfcCriapkDaa9-cm-54" value="" style="endArrow=none;html=1;exitX=1;exitY=0.5;exitDx=0;exitDy=0;entryX=0;entryY=0.5;entryDx=0;entryDy=0;" parent="1" source="u09HpfcCriapkDaa9-cm-49" target="u09HpfcCriapkDaa9-cm-37" edge="1">
          <mxGeometry width="50" height="50" relative="1" as="geometry">
            <mxPoint x="760" y="680" as="sourcePoint" />
            <mxPoint x="1000" y="600" as="targetPoint" />
          </mxGeometry>
        </mxCell>
        <mxCell id="u09HpfcCriapkDaa9-cm-56" value="" style="endArrow=none;html=1;entryX=0;entryY=0.5;entryDx=0;entryDy=0;exitX=1;exitY=0.5;exitDx=0;exitDy=0;" parent="1" source="u09HpfcCriapkDaa9-cm-49" target="u09HpfcCriapkDaa9-cm-60" edge="1">
          <mxGeometry width="50" height="50" relative="1" as="geometry">
            <mxPoint x="760" y="680" as="sourcePoint" />
            <mxPoint x="1000" y="720" as="targetPoint" />
          </mxGeometry>
        </mxCell>
        <mxCell id="u09HpfcCriapkDaa9-cm-147" style="edgeStyle=orthogonalEdgeStyle;rounded=0;orthogonalLoop=1;jettySize=auto;html=1;endArrow=classicThin;endFill=1;" parent="1" source="u09HpfcCriapkDaa9-cm-60" edge="1">
          <mxGeometry relative="1" as="geometry">
            <mxPoint x="1160" y="760" as="targetPoint" />
          </mxGeometry>
        </mxCell>
        <mxCell id="u09HpfcCriapkDaa9-cm-60" value="" style="ellipse;whiteSpace=wrap;html=1;aspect=fixed;" parent="1" vertex="1">
          <mxGeometry x="1000" y="720" width="80" height="80" as="geometry" />
        </mxCell>
        <mxCell id="u09HpfcCriapkDaa9-cm-61" value="" style="endArrow=none;html=1;exitX=1;exitY=0.5;exitDx=0;exitDy=0;entryX=0;entryY=0.5;entryDx=0;entryDy=0;" parent="1" source="u09HpfcCriapkDaa9-cm-14" target="u09HpfcCriapkDaa9-cm-60" edge="1">
          <mxGeometry width="50" height="50" relative="1" as="geometry">
            <mxPoint x="760" y="920" as="sourcePoint" />
            <mxPoint x="1000" y="840" as="targetPoint" />
          </mxGeometry>
        </mxCell>
        <mxCell id="u09HpfcCriapkDaa9-cm-63" value="" style="endArrow=none;html=1;exitX=1;exitY=0.5;exitDx=0;exitDy=0;" parent="1" source="u09HpfcCriapkDaa9-cm-12" edge="1">
          <mxGeometry width="50" height="50" relative="1" as="geometry">
            <mxPoint x="760" y="440" as="sourcePoint" />
            <mxPoint x="1000" y="360" as="targetPoint" />
          </mxGeometry>
        </mxCell>
        <mxCell id="u09HpfcCriapkDaa9-cm-98" value="" style="shape=waypoint;sketch=0;size=6;pointerEvents=1;points=[];fillColor=none;resizable=0;rotatable=0;perimeter=centerPerimeter;snapToPoint=1;" parent="1" vertex="1">
          <mxGeometry x="380" y="600" width="40" height="40" as="geometry" />
        </mxCell>
        <mxCell id="u09HpfcCriapkDaa9-cm-99" value="" style="shape=waypoint;sketch=0;size=6;pointerEvents=1;points=[];fillColor=none;resizable=0;rotatable=0;perimeter=centerPerimeter;snapToPoint=1;" parent="1" vertex="1">
          <mxGeometry x="380" y="640" width="40" height="40" as="geometry" />
        </mxCell>
        <mxCell id="u09HpfcCriapkDaa9-cm-100" value="" style="shape=waypoint;sketch=0;size=6;pointerEvents=1;points=[];fillColor=none;resizable=0;rotatable=0;perimeter=centerPerimeter;snapToPoint=1;" parent="1" vertex="1">
          <mxGeometry x="380" y="680" width="40" height="40" as="geometry" />
        </mxCell>
        <mxCell id="u09HpfcCriapkDaa9-cm-101" value="" style="shape=waypoint;sketch=0;size=6;pointerEvents=1;points=[];fillColor=none;resizable=0;rotatable=0;perimeter=centerPerimeter;snapToPoint=1;" parent="1" vertex="1">
          <mxGeometry x="700" y="680" width="40" height="40" as="geometry" />
        </mxCell>
        <mxCell id="u09HpfcCriapkDaa9-cm-102" value="" style="shape=waypoint;sketch=0;size=6;pointerEvents=1;points=[];fillColor=none;resizable=0;rotatable=0;perimeter=centerPerimeter;snapToPoint=1;" parent="1" vertex="1">
          <mxGeometry x="700" y="720" width="40" height="40" as="geometry" />
        </mxCell>
        <mxCell id="u09HpfcCriapkDaa9-cm-103" value="" style="shape=waypoint;sketch=0;size=6;pointerEvents=1;points=[];fillColor=none;resizable=0;rotatable=0;perimeter=centerPerimeter;snapToPoint=1;" parent="1" vertex="1">
          <mxGeometry x="700" y="760" width="40" height="40" as="geometry" />
        </mxCell>
        <mxCell id="u09HpfcCriapkDaa9-cm-114" value="" style="endArrow=none;html=1;entryX=0;entryY=0.5;entryDx=0;entryDy=0;exitX=1;exitY=0.5;exitDx=0;exitDy=0;endFill=0;" parent="1" target="u09HpfcCriapkDaa9-cm-12" edge="1">
          <mxGeometry width="50" height="50" relative="1" as="geometry">
            <mxPoint x="440" y="400" as="sourcePoint" />
            <mxPoint x="680" y="440" as="targetPoint" />
          </mxGeometry>
        </mxCell>
        <mxCell id="u09HpfcCriapkDaa9-cm-115" value="" style="endArrow=none;html=1;entryX=0;entryY=0.5;entryDx=0;entryDy=0;exitX=1;exitY=0.5;exitDx=0;exitDy=0;endFill=0;" parent="1" target="u09HpfcCriapkDaa9-cm-13" edge="1">
          <mxGeometry width="50" height="50" relative="1" as="geometry">
            <mxPoint x="440" y="520" as="sourcePoint" />
            <mxPoint x="680" y="560" as="targetPoint" />
          </mxGeometry>
        </mxCell>
        <mxCell id="u09HpfcCriapkDaa9-cm-116" value="" style="endArrow=none;html=1;entryX=0;entryY=0.5;entryDx=0;entryDy=0;exitX=1;exitY=0.5;exitDx=0;exitDy=0;endFill=0;" parent="1" target="u09HpfcCriapkDaa9-cm-14" edge="1">
          <mxGeometry width="50" height="50" relative="1" as="geometry">
            <mxPoint x="440" y="800" as="sourcePoint" />
            <mxPoint x="680" y="840" as="targetPoint" />
          </mxGeometry>
        </mxCell>
        <mxCell id="u09HpfcCriapkDaa9-cm-118" value="" style="endArrow=none;html=1;entryX=0;entryY=0.5;entryDx=0;entryDy=0;exitX=1;exitY=0.5;exitDx=0;exitDy=0;endFill=0;" parent="1" source="u09HpfcCriapkDaa9-cm-1" target="u09HpfcCriapkDaa9-cm-11" edge="1">
          <mxGeometry width="50" height="50" relative="1" as="geometry">
            <mxPoint x="440" y="280" as="sourcePoint" />
            <mxPoint x="680" y="320" as="targetPoint" />
          </mxGeometry>
        </mxCell>
        <mxCell id="u09HpfcCriapkDaa9-cm-119" value="" style="endArrow=none;html=1;entryX=0;entryY=0.5;entryDx=0;entryDy=0;exitX=1;exitY=0.5;exitDx=0;exitDy=0;endFill=0;" parent="1" target="u09HpfcCriapkDaa9-cm-12" edge="1">
          <mxGeometry width="50" height="50" relative="1" as="geometry">
            <mxPoint x="440" y="520" as="sourcePoint" />
            <mxPoint x="680" y="440" as="targetPoint" />
          </mxGeometry>
        </mxCell>
        <mxCell id="u09HpfcCriapkDaa9-cm-120" value="" style="endArrow=none;html=1;entryX=0;entryY=0.5;entryDx=0;entryDy=0;exitX=1;exitY=0.5;exitDx=0;exitDy=0;endFill=0;" parent="1" source="u09HpfcCriapkDaa9-cm-30" target="u09HpfcCriapkDaa9-cm-49" edge="1">
          <mxGeometry width="50" height="50" relative="1" as="geometry">
            <mxPoint x="440" y="800" as="sourcePoint" />
            <mxPoint x="680" y="720" as="targetPoint" />
          </mxGeometry>
        </mxCell>
        <mxCell id="u09HpfcCriapkDaa9-cm-121" value="" style="endArrow=none;html=1;entryX=0;entryY=0.5;entryDx=0;entryDy=0;exitX=1;exitY=0.5;exitDx=0;exitDy=0;endFill=0;" parent="1" target="u09HpfcCriapkDaa9-cm-12" edge="1">
          <mxGeometry width="50" height="50" relative="1" as="geometry">
            <mxPoint x="440" y="280" as="sourcePoint" />
            <mxPoint x="680" y="320" as="targetPoint" />
          </mxGeometry>
        </mxCell>
        <mxCell id="u09HpfcCriapkDaa9-cm-122" value="" style="endArrow=none;html=1;entryX=0;entryY=0.5;entryDx=0;entryDy=0;exitX=1;exitY=0.5;exitDx=0;exitDy=0;endFill=0;" parent="1" target="u09HpfcCriapkDaa9-cm-13" edge="1">
          <mxGeometry width="50" height="50" relative="1" as="geometry">
            <mxPoint x="440" y="400" as="sourcePoint" />
            <mxPoint x="680" y="560" as="targetPoint" />
          </mxGeometry>
        </mxCell>
        <mxCell id="u09HpfcCriapkDaa9-cm-123" value="" style="endArrow=none;html=1;entryX=0;entryY=0.5;entryDx=0;entryDy=0;exitX=1;exitY=0.5;exitDx=0;exitDy=0;endFill=0;" parent="1" target="u09HpfcCriapkDaa9-cm-49" edge="1">
          <mxGeometry width="50" height="50" relative="1" as="geometry">
            <mxPoint x="440" y="520" as="sourcePoint" />
            <mxPoint x="680" y="680" as="targetPoint" />
          </mxGeometry>
        </mxCell>
        <mxCell id="u09HpfcCriapkDaa9-cm-124" value="" style="endArrow=none;html=1;entryX=0;entryY=0.5;entryDx=0;entryDy=0;exitX=1;exitY=0.5;exitDx=0;exitDy=0;endFill=0;" parent="1" target="u09HpfcCriapkDaa9-cm-14" edge="1">
          <mxGeometry width="50" height="50" relative="1" as="geometry">
            <mxPoint x="440" y="520" as="sourcePoint" />
            <mxPoint x="680" y="680" as="targetPoint" />
          </mxGeometry>
        </mxCell>
        <mxCell id="u09HpfcCriapkDaa9-cm-125" value="" style="endArrow=none;html=1;entryX=0;entryY=0.5;entryDx=0;entryDy=0;exitX=1;exitY=0.5;exitDx=0;exitDy=0;endFill=0;" parent="1" target="u09HpfcCriapkDaa9-cm-13" edge="1">
          <mxGeometry width="50" height="50" relative="1" as="geometry">
            <mxPoint x="440" y="800" as="sourcePoint" />
            <mxPoint x="680" y="680" as="targetPoint" />
          </mxGeometry>
        </mxCell>
        <mxCell id="u09HpfcCriapkDaa9-cm-126" value="" style="endArrow=none;html=1;entryX=0;entryY=0.5;entryDx=0;entryDy=0;exitX=1;exitY=0.5;exitDx=0;exitDy=0;endFill=0;" parent="1" target="u09HpfcCriapkDaa9-cm-11" edge="1">
          <mxGeometry width="50" height="50" relative="1" as="geometry">
            <mxPoint x="440" y="520" as="sourcePoint" />
            <mxPoint x="680" y="280" as="targetPoint" />
          </mxGeometry>
        </mxCell>
        <mxCell id="u09HpfcCriapkDaa9-cm-127" value="" style="endArrow=none;html=1;entryX=0;entryY=0.5;entryDx=0;entryDy=0;exitX=1;exitY=0.5;exitDx=0;exitDy=0;endFill=0;" parent="1" target="u09HpfcCriapkDaa9-cm-13" edge="1">
          <mxGeometry width="50" height="50" relative="1" as="geometry">
            <mxPoint x="440" y="280" as="sourcePoint" />
            <mxPoint x="680" y="320" as="targetPoint" />
          </mxGeometry>
        </mxCell>
        <mxCell id="u09HpfcCriapkDaa9-cm-128" value="" style="endArrow=none;html=1;entryX=0;entryY=0.5;entryDx=0;entryDy=0;exitX=1;exitY=0.5;exitDx=0;exitDy=0;endFill=0;" parent="1" target="u09HpfcCriapkDaa9-cm-49" edge="1">
          <mxGeometry width="50" height="50" relative="1" as="geometry">
            <mxPoint x="440" y="280" as="sourcePoint" />
            <mxPoint x="680" y="560" as="targetPoint" />
          </mxGeometry>
        </mxCell>
        <mxCell id="u09HpfcCriapkDaa9-cm-129" value="" style="endArrow=none;html=1;entryX=0;entryY=0.5;entryDx=0;entryDy=0;exitX=1;exitY=0.5;exitDx=0;exitDy=0;endFill=0;" parent="1" target="u09HpfcCriapkDaa9-cm-14" edge="1">
          <mxGeometry width="50" height="50" relative="1" as="geometry">
            <mxPoint x="440" y="280" as="sourcePoint" />
            <mxPoint x="680" y="680" as="targetPoint" />
          </mxGeometry>
        </mxCell>
        <mxCell id="u09HpfcCriapkDaa9-cm-130" value="" style="endArrow=none;html=1;exitX=1;exitY=0.5;exitDx=0;exitDy=0;endFill=0;entryX=0;entryY=0.5;entryDx=0;entryDy=0;" parent="1" target="u09HpfcCriapkDaa9-cm-49" edge="1">
          <mxGeometry width="50" height="50" relative="1" as="geometry">
            <mxPoint x="440" y="400" as="sourcePoint" />
            <mxPoint x="680" y="680" as="targetPoint" />
          </mxGeometry>
        </mxCell>
        <mxCell id="u09HpfcCriapkDaa9-cm-131" value="" style="endArrow=none;html=1;exitX=1;exitY=0.5;exitDx=0;exitDy=0;endFill=0;entryX=0;entryY=0.5;entryDx=0;entryDy=0;" parent="1" target="u09HpfcCriapkDaa9-cm-14" edge="1">
          <mxGeometry width="50" height="50" relative="1" as="geometry">
            <mxPoint x="440" y="400" as="sourcePoint" />
            <mxPoint x="680" y="680" as="targetPoint" />
          </mxGeometry>
        </mxCell>
        <mxCell id="u09HpfcCriapkDaa9-cm-132" value="" style="endArrow=none;html=1;entryX=0;entryY=0.5;entryDx=0;entryDy=0;exitX=1;exitY=0.5;exitDx=0;exitDy=0;endFill=0;" parent="1" target="u09HpfcCriapkDaa9-cm-12" edge="1">
          <mxGeometry width="50" height="50" relative="1" as="geometry">
            <mxPoint x="440" y="800" as="sourcePoint" />
            <mxPoint x="680" y="560" as="targetPoint" />
          </mxGeometry>
        </mxCell>
        <mxCell id="u09HpfcCriapkDaa9-cm-133" value="" style="endArrow=none;html=1;entryX=0;entryY=0.5;entryDx=0;entryDy=0;exitX=1;exitY=0.5;exitDx=0;exitDy=0;endFill=0;" parent="1" target="u09HpfcCriapkDaa9-cm-11" edge="1">
          <mxGeometry width="50" height="50" relative="1" as="geometry">
            <mxPoint x="440" y="800" as="sourcePoint" />
            <mxPoint x="680" y="440" as="targetPoint" />
          </mxGeometry>
        </mxCell>
        <mxCell id="u09HpfcCriapkDaa9-cm-134" value="" style="shape=waypoint;sketch=0;size=6;pointerEvents=1;points=[];fillColor=none;resizable=0;rotatable=0;perimeter=centerPerimeter;snapToPoint=1;" parent="1" vertex="1">
          <mxGeometry x="1020" y="560" width="40" height="40" as="geometry" />
        </mxCell>
        <mxCell id="u09HpfcCriapkDaa9-cm-135" value="" style="shape=waypoint;sketch=0;size=6;pointerEvents=1;points=[];fillColor=none;resizable=0;rotatable=0;perimeter=centerPerimeter;snapToPoint=1;" parent="1" vertex="1">
          <mxGeometry x="1020" y="600" width="40" height="40" as="geometry" />
        </mxCell>
        <mxCell id="u09HpfcCriapkDaa9-cm-136" value="" style="shape=waypoint;sketch=0;size=6;pointerEvents=1;points=[];fillColor=none;resizable=0;rotatable=0;perimeter=centerPerimeter;snapToPoint=1;" parent="1" vertex="1">
          <mxGeometry x="1020" y="640" width="40" height="40" as="geometry" />
        </mxCell>
        <mxCell id="u09HpfcCriapkDaa9-cm-137" value="" style="endArrow=none;html=1;exitX=1;exitY=0.5;exitDx=0;exitDy=0;entryX=0;entryY=0.5;entryDx=0;entryDy=0;" parent="1" source="u09HpfcCriapkDaa9-cm-13" edge="1">
          <mxGeometry width="50" height="50" relative="1" as="geometry">
            <mxPoint x="760" y="560" as="sourcePoint" />
            <mxPoint x="1000" y="360" as="targetPoint" />
          </mxGeometry>
        </mxCell>
        <mxCell id="u09HpfcCriapkDaa9-cm-138" value="" style="endArrow=none;html=1;exitX=1;exitY=0.5;exitDx=0;exitDy=0;entryX=0;entryY=0.5;entryDx=0;entryDy=0;" parent="1" source="u09HpfcCriapkDaa9-cm-49" target="u09HpfcCriapkDaa9-cm-33" edge="1">
          <mxGeometry width="50" height="50" relative="1" as="geometry">
            <mxPoint x="760" y="680" as="sourcePoint" />
            <mxPoint x="1000" y="480" as="targetPoint" />
          </mxGeometry>
        </mxCell>
        <mxCell id="u09HpfcCriapkDaa9-cm-139" value="" style="endArrow=none;html=1;entryX=0;entryY=0.5;entryDx=0;entryDy=0;exitX=1;exitY=0.5;exitDx=0;exitDy=0;" parent="1" source="u09HpfcCriapkDaa9-cm-11" target="u09HpfcCriapkDaa9-cm-37" edge="1">
          <mxGeometry width="50" height="50" relative="1" as="geometry">
            <mxPoint x="760" y="320" as="sourcePoint" />
            <mxPoint x="1000" y="360" as="targetPoint" />
          </mxGeometry>
        </mxCell>
        <mxCell id="u09HpfcCriapkDaa9-cm-140" value="" style="endArrow=none;html=1;entryX=0;entryY=0.5;entryDx=0;entryDy=0;exitX=1;exitY=0.5;exitDx=0;exitDy=0;" parent="1" source="u09HpfcCriapkDaa9-cm-11" target="u09HpfcCriapkDaa9-cm-60" edge="1">
          <mxGeometry width="50" height="50" relative="1" as="geometry">
            <mxPoint x="760" y="320" as="sourcePoint" />
            <mxPoint x="1000" y="480" as="targetPoint" />
          </mxGeometry>
        </mxCell>
        <mxCell id="u09HpfcCriapkDaa9-cm-141" value="" style="endArrow=none;html=1;entryX=0;entryY=0.5;entryDx=0;entryDy=0;exitX=1;exitY=0.5;exitDx=0;exitDy=0;" parent="1" source="u09HpfcCriapkDaa9-cm-12" target="u09HpfcCriapkDaa9-cm-60" edge="1">
          <mxGeometry width="50" height="50" relative="1" as="geometry">
            <mxPoint x="760" y="440" as="sourcePoint" />
            <mxPoint x="1000" y="880" as="targetPoint" />
          </mxGeometry>
        </mxCell>
        <mxCell id="u09HpfcCriapkDaa9-cm-142" value="" style="endArrow=none;html=1;entryX=0;entryY=0.5;entryDx=0;entryDy=0;exitX=1;exitY=0.5;exitDx=0;exitDy=0;" parent="1" source="u09HpfcCriapkDaa9-cm-13" target="u09HpfcCriapkDaa9-cm-60" edge="1">
          <mxGeometry width="50" height="50" relative="1" as="geometry">
            <mxPoint x="760" y="560" as="sourcePoint" />
            <mxPoint x="1000" y="880" as="targetPoint" />
          </mxGeometry>
        </mxCell>
        <mxCell id="u09HpfcCriapkDaa9-cm-143" value="" style="endArrow=none;html=1;exitX=1;exitY=0.5;exitDx=0;exitDy=0;entryX=0;entryY=0.5;entryDx=0;entryDy=0;" parent="1" source="u09HpfcCriapkDaa9-cm-14" target="u09HpfcCriapkDaa9-cm-37" edge="1">
          <mxGeometry width="50" height="50" relative="1" as="geometry">
            <mxPoint x="760" y="960" as="sourcePoint" />
            <mxPoint x="1000" y="760" as="targetPoint" />
          </mxGeometry>
        </mxCell>
        <mxCell id="u09HpfcCriapkDaa9-cm-144" value="" style="endArrow=none;html=1;exitX=1;exitY=0.5;exitDx=0;exitDy=0;entryX=0;entryY=0.5;entryDx=0;entryDy=0;" parent="1" source="u09HpfcCriapkDaa9-cm-14" target="u09HpfcCriapkDaa9-cm-33" edge="1">
          <mxGeometry width="50" height="50" relative="1" as="geometry">
            <mxPoint x="760" y="960" as="sourcePoint" />
            <mxPoint x="1000" y="480" as="targetPoint" />
          </mxGeometry>
        </mxCell>
        <mxCell id="u09HpfcCriapkDaa9-cm-148" value="" style="endArrow=classic;html=1;entryX=0;entryY=0.5;entryDx=0;entryDy=0;" parent="1" target="u09HpfcCriapkDaa9-cm-28" edge="1">
          <mxGeometry width="50" height="50" relative="1" as="geometry">
            <mxPoint x="240" y="280" as="sourcePoint" />
            <mxPoint x="290" y="270" as="targetPoint" />
          </mxGeometry>
        </mxCell>
        <mxCell id="u09HpfcCriapkDaa9-cm-149" value="" style="endArrow=classic;html=1;entryX=0;entryY=0.5;entryDx=0;entryDy=0;" parent="1" edge="1">
          <mxGeometry width="50" height="50" relative="1" as="geometry">
            <mxPoint x="240" y="399.5" as="sourcePoint" />
            <mxPoint x="360" y="399.5" as="targetPoint" />
          </mxGeometry>
        </mxCell>
        <mxCell id="u09HpfcCriapkDaa9-cm-150" value="" style="endArrow=classic;html=1;entryX=0;entryY=0.5;entryDx=0;entryDy=0;" parent="1" edge="1">
          <mxGeometry width="50" height="50" relative="1" as="geometry">
            <mxPoint x="240" y="520" as="sourcePoint" />
            <mxPoint x="360" y="520" as="targetPoint" />
          </mxGeometry>
        </mxCell>
        <mxCell id="u09HpfcCriapkDaa9-cm-151" value="" style="endArrow=classic;html=1;entryX=0;entryY=0.5;entryDx=0;entryDy=0;" parent="1" edge="1">
          <mxGeometry width="50" height="50" relative="1" as="geometry">
            <mxPoint x="240" y="800" as="sourcePoint" />
            <mxPoint x="360" y="800" as="targetPoint" />
          </mxGeometry>
        </mxCell>
        <mxCell id="u09HpfcCriapkDaa9-cm-183" value="&lt;font style=&quot;font-size: 20px&quot;&gt;x&lt;sub&gt;1&lt;/sub&gt;&lt;/font&gt;" style="text;html=1;align=center;verticalAlign=middle;resizable=0;points=[];autosize=1;strokeColor=none;" parent="1" vertex="1">
          <mxGeometry x="210" y="265" width="30" height="30" as="geometry" />
        </mxCell>
        <mxCell id="u09HpfcCriapkDaa9-cm-184" value="&lt;font style=&quot;font-size: 20px&quot;&gt;x&lt;/font&gt;&lt;font style=&quot;font-size: 16.6667px&quot;&gt;&lt;sub&gt;2&lt;/sub&gt;&lt;/font&gt;" style="text;html=1;align=center;verticalAlign=middle;resizable=0;points=[];autosize=1;strokeColor=none;" parent="1" vertex="1">
          <mxGeometry x="210" y="385" width="30" height="30" as="geometry" />
        </mxCell>
        <mxCell id="u09HpfcCriapkDaa9-cm-185" value="&lt;font style=&quot;font-size: 20px&quot;&gt;x&lt;/font&gt;&lt;font style=&quot;font-size: 16.6667px&quot;&gt;&lt;sub&gt;3&lt;/sub&gt;&lt;/font&gt;" style="text;html=1;align=center;verticalAlign=middle;resizable=0;points=[];autosize=1;strokeColor=none;" parent="1" vertex="1">
          <mxGeometry x="210" y="505" width="30" height="30" as="geometry" />
        </mxCell>
        <mxCell id="u09HpfcCriapkDaa9-cm-186" value="&lt;font style=&quot;font-size: 20px&quot;&gt;x&lt;/font&gt;&lt;font style=&quot;font-size: 16.6667px&quot;&gt;&lt;sub&gt;N&lt;/sub&gt;&lt;/font&gt;" style="text;html=1;align=center;verticalAlign=middle;resizable=0;points=[];autosize=1;strokeColor=none;" parent="1" vertex="1">
          <mxGeometry x="205" y="785" width="40" height="30" as="geometry" />
        </mxCell>
        <mxCell id="u09HpfcCriapkDaa9-cm-188" value="&lt;span style=&quot;font-size: 16.6667px&quot;&gt;y&lt;sub&gt;1&lt;/sub&gt;&lt;/span&gt;" style="text;html=1;align=center;verticalAlign=middle;resizable=0;points=[];autosize=1;strokeColor=none;" parent="1" vertex="1">
          <mxGeometry x="1160" y="350" width="30" height="20" as="geometry" />
        </mxCell>
        <mxCell id="u09HpfcCriapkDaa9-cm-189" value="&lt;span style=&quot;font-size: 16.6667px&quot;&gt;y&lt;/span&gt;&lt;span style=&quot;font-size: 13.8889px&quot;&gt;&lt;sub&gt;2&lt;/sub&gt;&lt;/span&gt;" style="text;html=1;align=center;verticalAlign=middle;resizable=0;points=[];autosize=1;strokeColor=none;" parent="1" vertex="1">
          <mxGeometry x="1160" y="470" width="30" height="20" as="geometry" />
        </mxCell>
        <mxCell id="u09HpfcCriapkDaa9-cm-190" value="&lt;span style=&quot;font-size: 16.6667px&quot;&gt;y&lt;/span&gt;&lt;span style=&quot;font-size: 11.5741px&quot;&gt;D&lt;/span&gt;" style="text;html=1;align=center;verticalAlign=middle;resizable=0;points=[];autosize=1;strokeColor=none;" parent="1" vertex="1">
          <mxGeometry x="1160" y="750" width="30" height="20" as="geometry" />
        </mxCell>
        <mxCell id="u09HpfcCriapkDaa9-cm-191" value="&lt;font style=&quot;font-size: 30px&quot;&gt;Input Layer&lt;/font&gt;" style="text;html=1;align=center;verticalAlign=middle;resizable=0;points=[];autosize=1;strokeColor=none;" parent="1" vertex="1">
          <mxGeometry x="315" y="970" width="170" height="30" as="geometry" />
        </mxCell>
        <mxCell id="u09HpfcCriapkDaa9-cm-192" value="&lt;font style=&quot;font-size: 30px&quot;&gt;Hidden Layer&lt;/font&gt;" style="text;html=1;align=center;verticalAlign=middle;resizable=0;points=[];autosize=1;strokeColor=none;" parent="1" vertex="1">
          <mxGeometry x="625" y="970" width="190" height="30" as="geometry" />
        </mxCell>
        <mxCell id="u09HpfcCriapkDaa9-cm-193" value="&lt;font style=&quot;font-size: 30px&quot;&gt;Output Layer&lt;/font&gt;" style="text;html=1;align=center;verticalAlign=middle;resizable=0;points=[];autosize=1;strokeColor=none;" parent="1" vertex="1">
          <mxGeometry x="945" y="970" width="190" height="30" as="geometry" />
        </mxCell>
      </root>
    </mxGraphModel>
  </diagram>
  <diagram id="dGvZxWMaMobrjfoBNcSO" name="network_back">
    <mxGraphModel dx="1673" dy="912" grid="1" gridSize="10" guides="1" tooltips="1" connect="1" arrows="1" fold="1" page="1" pageScale="1" pageWidth="827" pageHeight="1169" math="0" shadow="0">
      <root>
        <mxCell id="SPXRel4NC48ZoxL2uMbs-0" />
        <mxCell id="SPXRel4NC48ZoxL2uMbs-1" parent="SPXRel4NC48ZoxL2uMbs-0" />
        <mxCell id="vNiuz4UiM2F_v6-dM7cI-0" value="&lt;font style=&quot;font-size: 16px&quot;&gt;h&lt;/font&gt;" style="ellipse;whiteSpace=wrap;html=1;aspect=fixed;" vertex="1" parent="SPXRel4NC48ZoxL2uMbs-1">
          <mxGeometry x="360" y="400" width="80" height="80" as="geometry" />
        </mxCell>
        <mxCell id="vNiuz4UiM2F_v6-dM7cI-1" value="&lt;font style=&quot;font-size: 16px&quot;&gt;softmax&lt;/font&gt;" style="ellipse;whiteSpace=wrap;html=1;aspect=fixed;" vertex="1" parent="SPXRel4NC48ZoxL2uMbs-1">
          <mxGeometry x="960" y="400" width="80" height="80" as="geometry" />
        </mxCell>
        <mxCell id="vNiuz4UiM2F_v6-dM7cI-2" value="&lt;font style=&quot;font-size: 19px&quot;&gt;*&lt;/font&gt;" style="ellipse;whiteSpace=wrap;html=1;aspect=fixed;" vertex="1" parent="SPXRel4NC48ZoxL2uMbs-1">
          <mxGeometry x="760" y="400" width="80" height="80" as="geometry" />
        </mxCell>
        <mxCell id="vNiuz4UiM2F_v6-dM7cI-3" value="&lt;font style=&quot;font-size: 20px&quot;&gt;*&lt;/font&gt;" style="ellipse;whiteSpace=wrap;html=1;aspect=fixed;" vertex="1" parent="SPXRel4NC48ZoxL2uMbs-1">
          <mxGeometry x="160" y="400" width="80" height="80" as="geometry" />
        </mxCell>
        <mxCell id="_MZXMEP_m5ra9KIH0r95-0" value="&lt;font style=&quot;font-size: 20px&quot;&gt;X&lt;/font&gt;" style="text;html=1;align=center;verticalAlign=middle;resizable=0;points=[];autosize=1;strokeColor=none;" vertex="1" parent="SPXRel4NC48ZoxL2uMbs-1">
          <mxGeometry x="40" y="360" width="30" height="20" as="geometry" />
        </mxCell>
        <mxCell id="_MZXMEP_m5ra9KIH0r95-1" value="&lt;font style=&quot;font-size: 20px&quot;&gt;W&lt;sup&gt;(1)&lt;/sup&gt;&lt;/font&gt;" style="text;html=1;align=center;verticalAlign=middle;resizable=0;points=[];autosize=1;strokeColor=none;" vertex="1" parent="SPXRel4NC48ZoxL2uMbs-1">
          <mxGeometry x="40" y="490" width="50" height="30" as="geometry" />
        </mxCell>
        <mxCell id="_MZXMEP_m5ra9KIH0r95-2" value="" style="endArrow=none;html=1;entryX=0;entryY=1;entryDx=0;entryDy=0;" edge="1" parent="SPXRel4NC48ZoxL2uMbs-1" source="_MZXMEP_m5ra9KIH0r95-1" target="vNiuz4UiM2F_v6-dM7cI-3">
          <mxGeometry width="50" height="50" relative="1" as="geometry">
            <mxPoint x="110" y="530" as="sourcePoint" />
            <mxPoint x="160" y="480" as="targetPoint" />
          </mxGeometry>
        </mxCell>
        <mxCell id="_MZXMEP_m5ra9KIH0r95-3" value="" style="endArrow=none;html=1;entryX=0;entryY=0;entryDx=0;entryDy=0;" edge="1" parent="SPXRel4NC48ZoxL2uMbs-1" source="_MZXMEP_m5ra9KIH0r95-0" target="vNiuz4UiM2F_v6-dM7cI-3">
          <mxGeometry width="50" height="50" relative="1" as="geometry">
            <mxPoint x="170" y="440" as="sourcePoint" />
            <mxPoint x="220" y="390" as="targetPoint" />
          </mxGeometry>
        </mxCell>
        <mxCell id="_MZXMEP_m5ra9KIH0r95-4" value="" style="endArrow=none;html=1;exitX=1;exitY=0.5;exitDx=0;exitDy=0;entryX=0;entryY=0.5;entryDx=0;entryDy=0;" edge="1" parent="SPXRel4NC48ZoxL2uMbs-1" source="vNiuz4UiM2F_v6-dM7cI-0" target="nE4eOrgpkkczqjc7lihH-0">
          <mxGeometry width="50" height="50" relative="1" as="geometry">
            <mxPoint x="430" y="340" as="sourcePoint" />
            <mxPoint x="650" y="250" as="targetPoint" />
          </mxGeometry>
        </mxCell>
        <mxCell id="_MZXMEP_m5ra9KIH0r95-5" value="" style="endArrow=none;html=1;exitX=1;exitY=0.5;exitDx=0;exitDy=0;entryX=0;entryY=0.5;entryDx=0;entryDy=0;" edge="1" parent="SPXRel4NC48ZoxL2uMbs-1" source="vNiuz4UiM2F_v6-dM7cI-3" target="vNiuz4UiM2F_v6-dM7cI-0">
          <mxGeometry width="50" height="50" relative="1" as="geometry">
            <mxPoint x="270" y="550" as="sourcePoint" />
            <mxPoint x="320" y="500" as="targetPoint" />
          </mxGeometry>
        </mxCell>
        <mxCell id="_MZXMEP_m5ra9KIH0r95-9" value="" style="endArrow=none;html=1;exitX=1;exitY=0.5;exitDx=0;exitDy=0;entryX=0;entryY=0.5;entryDx=0;entryDy=0;" edge="1" parent="SPXRel4NC48ZoxL2uMbs-1">
          <mxGeometry width="50" height="50" relative="1" as="geometry">
            <mxPoint x="840" y="439.5" as="sourcePoint" />
            <mxPoint x="960" y="439.5" as="targetPoint" />
          </mxGeometry>
        </mxCell>
        <mxCell id="_MZXMEP_m5ra9KIH0r95-11" value="" style="endArrow=none;html=1;entryX=0;entryY=1;entryDx=0;entryDy=0;" edge="1" source="_MZXMEP_m5ra9KIH0r95-12" parent="SPXRel4NC48ZoxL2uMbs-1" target="vNiuz4UiM2F_v6-dM7cI-2">
          <mxGeometry width="50" height="50" relative="1" as="geometry">
            <mxPoint x="710" y="530" as="sourcePoint" />
            <mxPoint x="771.7157287525379" y="468.28427124746213" as="targetPoint" />
          </mxGeometry>
        </mxCell>
        <mxCell id="_MZXMEP_m5ra9KIH0r95-12" value="&lt;font style=&quot;font-size: 20px&quot;&gt;W&lt;sup&gt;(2)&lt;/sup&gt;&lt;/font&gt;" style="text;html=1;align=center;verticalAlign=middle;resizable=0;points=[];autosize=1;strokeColor=none;" vertex="1" parent="SPXRel4NC48ZoxL2uMbs-1">
          <mxGeometry x="640" y="490" width="50" height="30" as="geometry" />
        </mxCell>
        <mxCell id="_MZXMEP_m5ra9KIH0r95-16" value="" style="endArrow=classic;html=1;exitX=1;exitY=0.5;exitDx=0;exitDy=0;entryX=0;entryY=0.5;entryDx=0;entryDy=0;endFill=1;" edge="1" parent="SPXRel4NC48ZoxL2uMbs-1">
          <mxGeometry width="50" height="50" relative="1" as="geometry">
            <mxPoint x="1040" y="439.5" as="sourcePoint" />
            <mxPoint x="1160" y="439.5" as="targetPoint" />
          </mxGeometry>
        </mxCell>
        <mxCell id="_MZXMEP_m5ra9KIH0r95-17" value="&lt;font style=&quot;font-size: 20px&quot;&gt;Y&lt;/font&gt;" style="edgeLabel;html=1;align=center;verticalAlign=middle;resizable=0;points=[];" vertex="1" connectable="0" parent="_MZXMEP_m5ra9KIH0r95-16">
          <mxGeometry x="-0.65" relative="1" as="geometry">
            <mxPoint x="-2" y="-16" as="offset" />
          </mxGeometry>
        </mxCell>
        <mxCell id="nE4eOrgpkkczqjc7lihH-0" value="&lt;font style=&quot;font-size: 16px&quot;&gt;concat&lt;/font&gt;" style="ellipse;whiteSpace=wrap;html=1;aspect=fixed;" vertex="1" parent="SPXRel4NC48ZoxL2uMbs-1">
          <mxGeometry x="560" y="400" width="80" height="80" as="geometry" />
        </mxCell>
        <mxCell id="nE4eOrgpkkczqjc7lihH-2" value="" style="endArrow=none;html=1;exitX=1;exitY=0.5;exitDx=0;exitDy=0;entryX=0;entryY=0.5;entryDx=0;entryDy=0;" edge="1" parent="SPXRel4NC48ZoxL2uMbs-1" source="nE4eOrgpkkczqjc7lihH-0" target="vNiuz4UiM2F_v6-dM7cI-2">
          <mxGeometry width="50" height="50" relative="1" as="geometry">
            <mxPoint x="650" y="400" as="sourcePoint" />
            <mxPoint x="769.9999999999995" y="400" as="targetPoint" />
          </mxGeometry>
        </mxCell>
        <mxCell id="nE4eOrgpkkczqjc7lihH-22" value="&lt;font style=&quot;font-size: 20px&quot;&gt;Z&lt;/font&gt;" style="edgeLabel;html=1;align=center;verticalAlign=middle;resizable=0;points=[];" vertex="1" connectable="0" parent="nE4eOrgpkkczqjc7lihH-2">
          <mxGeometry x="-0.648" y="-2" relative="1" as="geometry">
            <mxPoint x="-1" y="-19" as="offset" />
          </mxGeometry>
        </mxCell>
        <mxCell id="nE4eOrgpkkczqjc7lihH-23" value="" style="endArrow=none;html=1;" edge="1" source="nE4eOrgpkkczqjc7lihH-24" parent="SPXRel4NC48ZoxL2uMbs-1">
          <mxGeometry width="50" height="50" relative="1" as="geometry">
            <mxPoint x="570" y="440" as="sourcePoint" />
            <mxPoint x="572" y="412" as="targetPoint" />
          </mxGeometry>
        </mxCell>
        <mxCell id="nE4eOrgpkkczqjc7lihH-24" value="&lt;span style=&quot;font-size: 20px&quot;&gt;ONE&lt;/span&gt;" style="text;html=1;align=center;verticalAlign=middle;resizable=0;points=[];autosize=1;strokeColor=none;" vertex="1" parent="SPXRel4NC48ZoxL2uMbs-1">
          <mxGeometry x="425" y="360" width="60" height="20" as="geometry" />
        </mxCell>
      </root>
    </mxGraphModel>
  </diagram>
</mxfile>
